<?xml version="1.0" encoding="UTF-8"?>
<svg xmlns="http://www.w3.org/2000/svg" xmlns:xlink="http://www.w3.org/1999/xlink" viewBox="0 0 60 60" width="60px" height="60px">
<g id="surface90535027">
<path style=" stroke:none;fill-rule:nonzero;fill:rgb(44.705883%,55.686277%,49.803922%);fill-opacity:1;" d="M 30 5 C 16.191406 5 5 16.191406 5 30 C 5 43.488281 15.6875 54.449219 29.050781 54.953125 L 29.050781 37.597656 L 23.195312 37.597656 L 23.195312 30.785156 L 29.050781 30.785156 L 29.050781 25.773438 C 29.050781 19.960938 32.605469 16.796875 37.789062 16.796875 C 39.539062 16.789062 41.28125 16.878906 43.019531 17.058594 L 43.019531 23.132812 L 39.449219 23.132812 C 36.625 23.132812 36.074219 24.46875 36.074219 26.4375 L 36.074219 30.773438 L 42.824219 30.773438 L 41.949219 37.585938 L 36.035156 37.585938 L 36.035156 54.234375 C 46.921875 51.53125 55 41.722656 55 30 C 55 16.191406 43.808594 5 30 5 Z M 30 5 "/>
</g>
</svg>
