<?xml version="1.0" encoding="UTF-8"?>
<svg id="Layer_2" data-name="Layer 2" xmlns="http://www.w3.org/2000/svg" viewBox="0 0 85.26 102.77">
  <defs>
    <style>
      .cls-1 {
        fill: #e8cf6c;
      }

      .cls-2 {
        fill: #6b8a7c;
      }
    </style>
  </defs>
  <g id="Layer_1-2" data-name="Layer 1">
    <path class="cls-2" d="M84.43,80.35c-1.56-1.19-11.71,3.64-17.33,4.43-1.11,.16-2.16,.77-3.24,1.19-2.19,.84-4.31,2.03-6.57,2.44-5,.91-10.07,1.44-15.12,2.1-.87,.11-1.84,.15-2.22-.91-.22-.63,.86-1.53,1.96-1.72,.28-.05,.56-.05,.84-.08,.73-.08,1.48-.1,2.2-.26,1.5-.33,4.74-.61,4.41-1.39-.33-.78-3.12,.5-4.67,.49-2.56-.02-5.12-.21-7.66-.45-.73-.07-1.61-.41-1.46-1.46,.14-.95,.95-1.01,1.71-1.04,1.47-.07,2.9,.04,4.37-.06,1.4-.09,4.32,.06,4.22-.79-.1-.85-8.3,.07-11.03-.06-.47-.02-1.19-.53-1.29-.94-.09-.38,.37-1.1,.79-1.36,.6-.37,1.36-.55,2.08-.65,1.36-.18,2.73-.26,4.09-.37,1.98-.16,6-.24,6.02-.84,.02-.6-4.81-1.05-6.62-1.24-1.25-.13-2.53-.07-3.76-.27-.43-.07-1.08-.71-1.09-1.01-.05-1.55,1.64-1.66,1.99-1.68,3.63-.26,7.24-.54,10.89-.08,1.19,.15,3.09-.14,4.18-.63,2.09-.94,2.08-1.95,.25-3.51-1.07-.91-2.22-1.74-3.16-2.77-.49-.53-.79-1.42-.8-2.16-.02-1,.84-1.32,1.72-.8,.42,.25,.84,.5,1.27,.74,2.87,1.61,5.75,3.22,8.63,4.83,.9,.51,1.78,1.05,2.67,1.56,1.21,.68,2.63,.89,3.97,.55,1.31-.33,2.64-.64,3.92-1.05,4.33-1.39,11.24-3.52,12.19-5.86,.95-2.35-.03-12.03-.31-17.47-.07-1.31,.32-13.77-.02-20.62-.04-3.15-5.94-8.02-10.69-10.13-6.75-1.99-25.52-14.6-30.53-14.29-.89,.06-7.33,3.03-14.28,6.52-.13-3.98-.34-8.9-2.14-9.19-1.4-.23-3.6,.12-6.14,.7-1.85,.42-4.15,.37-5.39,1.15-1.29,.81-.84,4.89-.72,8.68,.04,1.05,.24,3.61,.48,6.09-.87,.51-1.64,.98-2.3,1.41-.62,.4-9.66,5.86-10.32,8.15-.65,2.29-.5,1.52,.21,4.12,.12,.43,.32,.84,.58,1.2,3.56,4.72,8.16,8.2,13.2,11.17,1.31,.77,2.71,.94,4.17,.6,2.7-.63,5.39-1.3,8.09-1.9,1.98-.44,3.99-.78,5.99-1.17,.81-.15,1.34,.25,1.22,.99-.11,.66-.46,1.44-.97,1.85-.75,.6-1.72,.93-2.61,1.34-.8,.37-1.65,.63-2.44,1.03-.8,.41-1.16,1.43-.71,2.21,.91,1.57,2.36,2.39,4.07,2.65,3.76,.57,7.25,1.97,10.74,3.36,.5,.2,.99,.57,1.31,1,.63,.83,.24,1.74-.79,1.83-.71,.06-1.46-.09-2.17-.24-2.3-.49-4.58-1.07-6.88-1.53-.56-.11-1.61-.36-1.77,.5-.17,.86,6.11,2.47,9.16,3.75,.64,.27,1.31,.6,1.76,1.1,.38,.43,.73,1.21,.6,1.69-.19,.71-1.01,.76-1.71,.56-2-.55-3.98-1.25-5.96-1.86-1.58-.49-4.6-2.05-4.7-1.46-.1,.59,5.13,2.28,7.74,3.28,.84,.32,1.89,.46,1.79,1.7-.06,.76-.98,1.18-2.4,.92-1.83-.33-3.66-.75-5.42-1.33-1.97-.65-5.58-2.79-5.8-2.32-.22,.47,.88,.91,1.42,1.21,1.54,.83,3.13,1.57,4.67,2.41,.6,.33,1.17,.76,1.63,1.26,.24,.26,.4,.89,.24,1.12-.2,.3-.74,.51-1.14,.52-.5,0-1.04-.16-1.51-.37-3.58-1.62-7.15-3.27-10.73-4.89-3.06-1.39-5.85-3.13-8.18-5.56-.65-.67-1.76-1.69-2.57-2.16-1.68-.97-7.77-6.89-8.83-5.66-1.06,1.23,.52,18.89,.44,27.7-.02,2.53-1.75,15.37,.65,22.29,.68,1.96,2.57,3.22,4.64,3.13,1.33-.06,2.92-.04,4.62,0,.48,.01,.88-.36,.89-.83,.04-1.42,.13-3.14,.07-5.4-.08-2.91-.04-8.55,.07-10.24,.24-3.79,.19-7.88,1.57-8.57,1.33-.66,3.66-.38,5.58-.61,2.64-.32,4.91-.45,6.3-.09,2.41,.63,1.1,9.36,1.09,12.93,0,1.99,.28,7.86-.07,11.88-.07,.75,.51,1.39,1.27,1.4,3.4,.03,11.97,.08,15.49-.24,4.69-.22,11.3-.09,15.47-.35,3.41,.13,9.2,.16,11.52,.42,4.61,.51,10.88-.2,12.36-1.8s2.33-19.23,.77-20.42Z"/>
    <path class="cls-1" d="M56.97,35.67c-1.23,.94-2.69,2.18-2.66,4.66,.03,2.48,2.01,4.56,4.33,4.65s4.2,.11,5.66-2.56c1.46-2.67,.8-4.82-.76-5.95s-4.73-2.19-6.57-.79Z"/>
    <path class="cls-1" d="M53.24,47.25c-.53,.25-1.99,1.71-2.52,2.68s-.35,1.8,.14,2.22,1.09,.44,2.05-.46,2.06-2.92,1.9-3.51-.78-1.3-1.56-.93Z"/>
    <path class="cls-1" d="M50.37,43.69c-.53-.12-3.06,.29-3.94,.74s-1.31,1.28-.99,1.83,.61,.99,1.79,.85,3.71-1.2,3.87-1.77,.05-1.49-.73-1.66Z"/>
    <path class="cls-1" d="M50.65,38.38c-.57-.24-2.4-.54-3.55-.31s-1.92,.94-1.72,1.55,.38,1.11,1.79,1.25,3.43-.2,3.8-.71,.54-1.44-.31-1.79Z"/>
    <path class="cls-1" d="M51.98,33.4c-.32-.43-1.98-1.64-2.94-1.87s-1.83,.12-1.94,.75,1.04,1.84,2.03,2.5,1.84,.68,2.33,.36,1-1.1,.52-1.74Z"/>
    <path class="cls-1" d="M55.84,31.01c0-.54-.88-2.94-1.49-3.71s-1.52-1.03-1.99-.6-.85,.8-.48,1.92,1.9,3.4,2.48,3.44,1.47-.25,1.48-1.05Z"/>
    <path class="cls-1" d="M60.67,31.21c.4-.42,1.22-2.4,1.35-3.48s-.3-1.97-.95-1.99-1.17-.01-1.73,1.17-.84,3.54-.47,4.02,1.2,.92,1.79,.29Z"/>
    <path class="cls-1" d="M65.87,32.39c.5-.2,1.94-1.42,2.41-2.29,.47-.87,.36-1.8-.22-2.07s-1.06-.47-1.96,.31-1.96,2.54-1.78,3.1,.8,1.25,1.54,.95Z"/>
    <path class="cls-1" d="M68.3,36.38c.49,.06,2.9-.75,3.61-1.27s.96-1.37,.57-1.87-.72-.91-1.76-.66-3.32,1.7-3.37,2.26,.21,1.45,.95,1.55Z"/>
    <path class="cls-1" d="M69.13,41.44c.56,.25,2.81,.55,3.97,.34s1.94-.9,1.75-1.52-.36-1.12-1.77-1.28-3.87,.17-4.24,.67-.56,1.43,.28,1.79Z"/>
    <path class="cls-1" d="M67.15,46.1c.3,.51,1.84,1.94,2.85,2.39s2.01,.29,2.21-.32,.34-1.12-.65-2.01-3.05-1.91-3.62-1.69-1.23,.88-.79,1.64Z"/>
    <path class="cls-1" d="M57.79,48.96c-.31,.44-.92,2.14-.86,3.12s.66,1.71,1.29,1.63,1.15-.17,1.49-1.31,.34-3.09-.11-3.46-1.35-.63-1.81,.02Z"/>
    <path class="cls-1" d="M63.16,48.83c-.05,.54,.55,2.07,1.11,2.89s1.37,1.03,1.94,.75c.72-.36,.91-.73,.62-1.88s-1.53-2.6-2.11-2.69-1.48,.14-1.55,.94Z"/>
  </g>
</svg>